<svg id="Layer_1" data-name="Layer 1" xmlns="http://www.w3.org/2000/svg" viewBox="0 0 839.83 207"><defs><style>.cls-1{font-size:96.89px;fill:#fff;font-family:CopperplateGothic-Bold, Copperplate Gothic Bold;}.cls-2{letter-spacing:-0.01em;}.cls-3{letter-spacing:0.02em;}.cls-4{letter-spacing:0em;}.cls-5{font-size:47.07px;fill:#d5ad88;font-family:CopperplateGothic-Light, Copperplate Gothic Light;}.cls-6{letter-spacing:0.42em;}.cls-7{letter-spacing:0.42em;}.cls-8{letter-spacing:0.42em;}.cls-9{letter-spacing:0.42em;}.cls-10{letter-spacing:0.42em;}.cls-11{letter-spacing:0.45em;}.cls-12{letter-spacing:0.33em;}.cls-13{fill:none;stroke:#d5ad88;stroke-linecap:round;stroke-linejoin:round;stroke-width:3.5px;}</style></defs><title>TrustRide Logo</title><text class="cls-1" transform="translate(216.06 125.87)">T<tspan class="cls-2" x="65.34" y="0">R</tspan><tspan x="142.91" y="0">U</tspan><tspan class="cls-3" x="221.96" y="0">S</tspan><tspan class="cls-4" x="293.49" y="0">TRIDE</tspan></text><text class="cls-5" transform="translate(245.72 195.23)"><tspan class="cls-6">T</tspan><tspan class="cls-7" x="50.94" y="0">R</tspan><tspan class="cls-6" x="106.88" y="0">ADI</tspan><tspan class="cls-8" x="252.98" y="0">N</tspan><tspan class="cls-7" x="312.14" y="0">G</tspan><tspan class="cls-9" x="371.45" y="0"> </tspan><tspan class="cls-10" x="402.94" y="0">E</tspan><tspan class="cls-11" x="456.59" y="0">S</tspan><tspan class="cls-12" x="512.75" y="0">T</tspan><tspan x="559.4" y="0">.</tspan></text><polyline class="cls-13" points="152.9 198.73 152.9 23.65 152.9 1.75 117.15 25.58"/><line class="cls-13" x1="117.15" y1="125.3" x2="117.15" y2="198.73"/><polyline class="cls-13" points="87.67 198.73 87.67 95.15 115.7 77.76 115.7 50.7 44.64 93.86 44.64 122.84 68.08 108.03 67.71 198.73"/><polyline class="cls-13" points="35.89 200.66 35.89 146.04 1.75 167.29 1.75 200.66"/></svg>