<?xml version="1.0" encoding="utf-8"?>
<!-- Generator: Adobe Illustrator 22.1.0, SVG Export Plug-In . SVG Version: 6.00 Build 0)  -->
<svg version="1.1" id="Layer_1" xmlns="http://www.w3.org/2000/svg" xmlns:xlink="http://www.w3.org/1999/xlink" x="0px" y="0px"
	 viewBox="0 0 841.9 227.4" style="enable-background:new 0 0 841.9 227.4;" xml:space="preserve">
<style type="text/css">
	.st0{fill:#C31F48;}
	.st1{fill:#706F6F;}
	.st2{fill:#F6F6F6;}
</style>
<g>
	<path class="st0" d="M156.2,44.3L79.1-1L0,44.3v137.5l79.1,45.6l77.2-45.6v-46.6l-36.6-22.8l36.6-22.2V44.3z M117.4,156.2
		l-37.6,24.4l-39.1-25V68.1l39.1-22.5l37.6,21.3L79.8,90.7v44.7L117.4,156.2z"/>
	<g>
		<path class="st1" d="M292.9,71c7.2,0,13.4,2.5,18.4,7.6s7.6,11.3,7.6,18.4c0,5.4-1.5,10.3-4.4,14.5c2.9,4.3,4.4,9.1,4.4,14.5
			c0,7.2-2.5,13.4-7.6,18.4s-11.3,7.6-18.4,7.6h-17.3l-23.2-23.2h40.6c0.9,0,1.5-0.3,2.1-0.9c0.6-0.6,0.9-1.2,0.9-2.1
			c0-0.9-0.3-1.5-0.9-2.1s-1.2-0.9-2.1-0.9h-43.5v37.8l-23.2-23.2V70.9h66.7V71z M249.4,94.1v5.7h43.5c0.9,0,1.5-0.3,2.1-0.9
			s0.9-1.2,0.9-2.1s-0.3-1.5-0.9-2.1s-1.2-0.9-2.1-0.9h-43.5V94.1z"/>
		<path class="st1" d="M391.5,71c7.2,0,13.4,2.5,18.4,7.6s7.6,11.3,7.6,18.4c0,7.2-2.5,13.4-7.6,18.4c-2.9,2.9-6.2,5-9.7,6.2
			l30.4,30.4h-32.8L348,102.2v58.5l-23.2-23.2V70.7h66.7V71z M348,94.1v5.7h43.5c0.9,0,1.5-0.3,2.1-0.9c0.6-0.6,0.9-1.2,0.9-2.1
			s-0.3-1.5-0.9-2.1c-0.6-0.6-1.2-0.9-2.1-0.9H348V94.1z"/>
		<path class="st1" d="M463.9,152.1c-11.2,0-20.7-4-28.7-11.9s-11.9-17.5-11.9-28.7s4-20.7,11.9-28.7S452.8,71,463.9,71h11.6
			c11.2,0,20.7,4,28.7,11.9s11.9,17.5,11.9,28.7s-4,20.7-11.9,28.7s-17.5,11.9-28.7,11.9H463.9z M463.9,94.1c-4.8,0-9,1.8-12.3,5.1
			c-3.4,3.4-5.1,7.5-5.1,12.3c0,4.8,1.8,9,5.1,12.3c3.4,3.4,7.5,5.1,12.3,5.1h11.6c4.8,0,9-1.8,12.3-5.1s5.1-7.5,5.1-12.3
			c0-4.8-1.8-9-5.1-12.3c-3.4-3.4-7.5-5.1-12.3-5.1H463.9z"/>
		<path class="st1" d="M626.3,71l-23.2,23.2H548c-0.9,0-1.5,0.3-2.1,0.9c-0.6,0.6-0.9,1.2-0.9,2.1c0,0.9,0.3,1.5,0.9,2.1
			c0.6,0.6,1.2,0.9,2.1,0.9h40.6c7.2,0,13.4,2.5,18.4,7.6c5.1,5.1,7.6,11.3,7.6,18.5s-2.5,13.4-7.6,18.4c-5.1,5.1-11.3,7.6-18.4,7.6
			h-78.3l23.2-23.2h55.1c0.9,0,1.5-0.3,2.1-0.9c0.6-0.6,0.9-1.2,0.9-2.1c0-0.9-0.3-1.5-0.9-2.1c-0.6-0.6-1.2-0.9-2.1-0.9H548
			c-7.2,0-13.4-2.5-18.4-7.6c-5.1-5.1-7.6-11.3-7.6-18.4c0-7.2,2.5-13.4,7.6-18.4c5.1-5.1,11.3-7.6,18.4-7.6h78.3V71z"/>
		<path class="st1" d="M661.1,128.9h52.2v23.2h-52.2c-11.2,0-20.7-4-28.7-11.9c-7.9-7.9-11.9-17.5-11.9-28.7s4-20.7,11.9-28.7
			C640.4,75,650,71,661.1,71h63.8l-23.2,23.2h-40.6c-4.8,0-9,1.8-12.3,5.1c-3.4,3.4-5.1,7.5-5.1,12.3c0,4.8,1.8,9,5.1,12.3
			C652.3,127.3,656.3,128.9,661.1,128.9z"/>
		<path class="st1" d="M759.8,152.1c-11.2,0-20.7-4-28.7-11.9s-11.9-17.5-11.9-28.7s4-20.7,11.9-28.7C739,75,748.6,71,759.8,71h11.6
			c11.2,0,20.7,4,28.7,11.9s11.9,17.5,11.9,28.7s-4,20.7-11.9,28.7c-7.9,7.9-17.5,11.9-28.7,11.9H759.8z M759.8,94.1
			c-4.8,0-9,1.8-12.3,5.1c-3.4,3.4-5.1,7.5-5.1,12.3c0,4.8,1.8,9,5.1,12.3c3.4,3.4,7.5,5.1,12.3,5.1h11.6c4.8,0,9-1.8,12.3-5.1
			c3.4-3.4,5.1-7.5,5.1-12.3c0-4.8-1.8-9-5.1-12.3c-3.4-3.4-7.5-5.1-12.3-5.1H759.8z"/>
	</g>
	<g>
		<g>
			<g>
				<path class="st1" d="M829.7,124.4c6.8,0,12.2,5.6,12.2,12.2c0,6.8-5.6,12.2-12.2,12.2c-6.8,0-12.2-5.6-12.2-12.2
					C817.5,129.8,822.9,124.4,829.7,124.4z"/>
			</g>
		</g>
		<path class="st2" d="M835.7,141.3l-2.6-3.8c0.9-0.7,1.5-1.9,1.5-3.1c0-2.2-1.9-4.1-4.1-4.1H826c-0.4,0-0.9,0.4-0.9,0.9v11
			c0,0.4,0.4,0.9,0.9,0.9s0.9-0.4,0.9-0.9v-3.7h3.5c0.4,0,0.9-0.1,1.3-0.1l2.8,4c0.1,0.3,0.4,0.3,0.7,0.3c0.1,0,0.3,0,0.4-0.1
			C835.9,142.1,835.9,141.7,835.7,141.3z M826.6,136.8v-5h3.5c1.3,0,2.5,1.2,2.5,2.5c0,1.3-1.2,2.5-2.5,2.5L826.6,136.8L826.6,136.8
			z"/>
	</g>
</g>
</svg>
