<svg id="Layer_1" data-name="Layer 1" xmlns="http://www.w3.org/2000/svg" viewBox="0 0 50 50"><defs><style>.cls-1{fill:#801517;}</style></defs><title>logo2</title><path class="cls-1" d="M42.12,10c0,1.12,0,2.24,0,3.37V20l-8.06,4.88,8.06,5v.5c0,3.05,0,6.1,0,9.16a.83.83,0,0,1-.53.85c-.67.35-1.31.75-2,1.13l-2.28,1.36L32.74,45.6,28,48.4c-.79.47-1.59.93-2.37,1.42a.87.87,0,0,1-1,0c-.5-.32-1-.61-1.52-.9-.69-.41-1.39-.79-2.08-1.2L18.55,46.3c-.81-.48-1.63-.95-2.45-1.42L14,43.67c-.85-.48-1.71-1-2.56-1.44s-1.64-1-2.45-1.44c-.3-.17-.58-.35-.89-.5a.45.45,0,0,1-.26-.44V9.79C9.23,9,10.6,8.26,12,7.48c1.63-.93,3.26-1.89,4.89-2.82l6.27-3.58C23.66.77,24.2.46,24.73.13a.68.68,0,0,1,.79,0c.95.57,1.91,1.11,2.87,1.68l4.86,2.87,7.6,4.47L42,9.84ZM16.78,34.3l8.58,5.49,8.23-5.35-8.23-4.59V23c0-.86,0-1.72,0-2.59a.57.57,0,0,1,.34-.62c.25-.12.47-.3.7-.44L33,15.18l.56-.37-8.21-4.65-.55.3c-2.5,1.44-5,2.89-7.51,4.32a.91.91,0,0,0-.54.91c0,6,0,12,0,18Z"/></svg>